<?xml version="1.0" encoding="UTF-8"?>
<!DOCTYPE svg PUBLIC "-//W3C//DTD SVG 1.1//EN" "http://www.w3.org/Graphics/SVG/1.1/DTD/svg11.dtd">
<!-- Creator: CorelDRAW 2020 (64-Bit) -->
<svg xmlns="http://www.w3.org/2000/svg" xml:space="preserve" width="215.9mm" height="279.4mm" version="1.1" style="shape-rendering:geometricPrecision; text-rendering:geometricPrecision; image-rendering:optimizeQuality; fill-rule:evenodd; clip-rule:evenodd"
viewBox="0 0 21590 27940"
 xmlns:xlink="http://www.w3.org/1999/xlink"
 xmlns:xodm="http://www.corel.com/coreldraw/odm/2003">
 <defs>
  <style type="text/css">
   <![CDATA[
    .fil1 {fill:#C1376A}
    .fil0 {fill:#C1376A}
   ]]>
  </style>
 </defs>
 <g id="Capa_x0020_1">
  <metadata id="CorelCorpID_0Corel-Layer"/>
  <g id="_2185258306992">
   <path class="fil0" d="M5850.33 2259.86c-38.22,-3.47 -31.19,-24.28 -27.72,-34.69 3.48,-10.49 3.48,-10.49 -87.11,3952.49 -90.5,3962.97 -271.67,11888.99 -362.25,15851.96 -90.5,3962.97 -90.5,3962.97 -203.28,4189.37 -112.77,226.33 -338.4,679.06 -445.25,909.57 -106.77,230.5 -94.93,238.7 59.86,304.92 154.79,66.22 452.36,190.3 736.12,186.2 283.75,-4.1 553.52,-136.54 688.41,-206.85 134.97,-70.32 134.97,-78.68 17.85,-300.04 -117.04,-221.36 -351.12,-655.8 -468.87,-884.97 -117.67,-229.16 -118.86,-253.05 -49.91,-4217.52 69.02,-3964.54 208.17,-11869.67 277.75,-15822.24 69.65,-3952.56 69.65,-3952.56 27.88,-3945.55 -41.7,6.94 -125.18,20.81 -163.48,17.35z"/>
   <path class="fil0" d="M3285.64 2258.39c-38.22,-3.32 -31.2,-23.28 -27.72,-33.26 3.47,-10.06 3.47,-10.06 -87.11,3790.71 -90.5,3800.77 -271.67,11402.37 -362.25,15203.14 -90.51,3800.77 -90.51,3800.77 -203.28,4017.91 -112.77,217.06 -338.4,651.26 -445.25,872.33 -106.78,221.07 -94.93,228.94 59.86,292.44 154.79,63.51 452.36,182.52 736.11,178.58 283.76,-3.93 553.53,-130.94 688.42,-198.38 134.96,-67.44 134.96,-75.46 17.84,-287.76 -117.03,-212.3 -351.11,-628.96 -468.86,-848.75 -117.67,-219.78 -118.86,-242.69 -49.91,-4044.89 69.02,-3802.28 208.17,-11383.85 277.75,-15174.64 69.65,-3790.79 69.65,-3790.79 27.87,-3784.06 -41.69,6.65 -125.17,19.96 -163.47,16.63z"/>
   <path class="fil1" d="M1300.55 1333.56c118.39,-289.05 118.39,-289.05 118.39,-289.05 0,0 0,0 1507.92,34.83 1508.01,34.83 4523.86,104.48 6028.31,139.31 1504.52,34.83 1497.5,34.83 1507.92,34.83 10.5,0 38.38,0 550.29,128.88 511.99,128.81 1507.93,386.58 2402.93,696.55 895.01,309.9 1689.1,672.07 2086.1,853.16 397,181.08 397,181.08 397,181.08 0,0 0,0 -2531.82,-55.67 -2531.82,-55.76 -7595.38,-167.19 -10127.2,-222.87 -2531.82,-55.75 -2531.82,-55.75 -2413.44,-344.8 118.38,-289.04 355.22,-867.21 473.6,-1156.25z"/>
   <path class="fil0" d="M1683.66 4307.71c111.43,-191.59 111.43,-191.59 111.43,-191.59 0,0 0,0 2587.49,69.65 2587.58,69.66 7762.65,208.97 10350.15,278.62 2587.57,69.66 2587.57,69.66 2587.57,69.66 0,0 0,0 205.41,191.59 205.49,191.51 616.47,574.53 999.5,1048.22 383.1,473.6 738.32,1037.71 915.93,1319.81 177.62,282.09 177.62,282.09 177.62,282.09 0,0 0,0 -3176.09,-90.5 -3176.09,-90.58 -9528.27,-271.67 -12704.35,-365.65 -3176.09,-94.06 -3176.09,-101.01 -3176.09,-104.48 0,-3.48 0,-3.48 93.98,-261.17 94.06,-257.77 282.17,-773.15 487.58,-1222.43 205.49,-449.29 428.43,-832.31 539.87,-1023.82z"/>
   <path class="fil0" d="M1331.83 8532.02c87.11,-153.21 87.11,-153.21 90.58,-156.69 3.48,-3.47 10.5,-10.5 1124.9,-7.03 1114.4,3.48 3336.33,17.46 4447.25,24.41 1110.93,6.95 1110.93,6.95 1110.93,6.95 0,0 0,0 3.47,397 3.48,397 10.43,1191.08 13.9,1588.08 3.48,397 3.48,397 3.48,397 0,0 0,0 -1236.34,-6.95 -1236.25,-6.95 -3708.84,-20.93 -4945.18,-27.87 -1236.25,-6.95 -1236.25,-6.95 -1236.25,-6.95 0,0 0,0 31.35,-240.32 31.35,-240.32 93.98,-720.87 212.36,-1114.4 118.46,-393.53 292.52,-700.02 379.55,-853.23z"/>
   <path class="fil0" d="M14931.27 8424.06c-1037.8,-45.25 -1037.8,-45.25 -1037.8,-45.25 0,0 0,0 160.16,181.08 160.24,181.09 480.64,543.27 703.5,957.72 222.87,414.37 348.28,881.03 410.9,1114.4 62.71,233.29 62.71,233.29 62.71,233.29 0,0 0,0 919.41,31.35 919.41,31.35 2758.16,93.98 3677.57,125.33 919.41,31.35 919.41,31.35 915.94,31.35 -3.48,0 -10.5,0 -31.43,-174.13 -20.85,-174.14 -55.68,-522.34 -156.69,-922.81 -101,-400.56 -268.11,-853.23 -351.75,-1079.57 -83.55,-226.42 -83.55,-226.42 -83.55,-226.42 0,0 0,0 -1037.79,-45.25 -1037.8,-45.26 -3113.39,-135.84 -4151.18,-181.09z"/>
   <path class="fil0" d="M1279.63 12213.06c90.58,-135.83 104.56,-135.83 108.03,-135.83 3.48,0 -3.55,0 1110.85,6.95 1114.48,6.95 3350.22,20.93 4468.1,27.88 1117.95,6.95 1117.95,6.95 1117.95,6.95 0,0 0,0 0,303.02 0,302.94 0,908.91 0,1211.93 0,302.94 0,302.94 0,302.94 0,0 0,0 -1260.74,10.51 -1260.66,10.42 -3781.97,31.27 -5042.71,41.77 -1260.66,10.43 -1260.66,10.43 -1260.66,10.43 0,0 0,0 55.68,-184.56 55.75,-184.57 167.26,-553.77 306.57,-874.16 139.31,-320.4 306.42,-591.99 396.93,-727.83z"/>
   <path class="fil0" d="M15460.55 12428.98c34.83,-184.56 48.81,-184.56 52.28,-184.56 3.48,0 -3.47,0 877.56,17.45 881.11,17.37 2650.28,52.2 3534.78,69.65 884.59,17.38 884.59,17.38 884.59,17.38 0,0 0,0 0,156.76 0,156.68 0,470.05 -48.81,825.28 -48.72,355.22 -146.18,752.22 -194.98,950.76 -48.73,198.46 -48.73,198.46 -48.73,198.46 0,0 0,0 -929.84,-17.37 -929.83,-17.45 -2789.51,-52.28 -3747.22,-69.66 -957.72,-17.45 -1013.39,-17.45 -1027.37,-31.35 -13.9,-13.98 13.98,-41.78 104.48,-212.44 90.58,-170.66 243.87,-484.03 348.27,-825.27 104.49,-341.33 160.24,-710.53 194.99,-895.09z"/>
   <path class="fil0" d="M2338.35 15336.95c-1107.45,-20.93 -1107.45,-20.93 -1107.45,-20.93 0,0 0,0 -87.11,153.21 -87.03,153.21 -261.09,459.71 -379.55,759.18 -118.38,299.46 -181.08,592.06 -208.96,738.32 -27.88,146.26 -20.85,146.26 -17.38,146.26 3.48,0 3.48,0 3116.86,59.23 3113.39,59.15 9340.23,177.61 12453.61,236.84 3113.39,59.15 3113.39,59.15 3113.39,59.15 0,0 0,0 80.07,-125.33 80.08,-125.41 240.32,-376.15 393.53,-665.19 153.21,-289.05 299.55,-616.47 372.68,-780.11 73.13,-163.71 73.13,-163.71 73.13,-163.71 0,0 0,0 -1142.28,-41.78 -1142.28,-41.77 -3426.83,-125.41 -4565.63,-167.18 -1138.8,-41.78 -1131.85,-41.78 -1128.38,-41.78 3.48,0 3.48,0 -73.13,80.16 -76.6,80.08 -229.89,240.24 -550.29,386.57 -320.31,146.26 -807.9,278.55 -1316.33,341.25 -508.43,62.71 -1037.8,55.68 -1629.86,20.85 -591.99,-34.83 -1246.76,-97.45 -1574.11,-128.81 -327.34,-31.35 -327.34,-31.35 -327.34,-31.35 0,0 0,0 6.95,-118.38 6.95,-118.46 20.92,-355.22 27.87,-473.61 6.95,-118.46 6.95,-118.46 6.95,-118.46 0,0 0,0 -1107.44,-20.85 -1107.45,-20.92 -3322.35,-62.7 -4429.8,-83.55z"/>
   <path class="fil0" d="M868.73 18439.91c48.72,-87.11 27.87,-59.31 17.37,-45.33 -10.42,13.9 -10.42,13.9 2932.3,62.7 2942.8,48.73 8828.32,146.26 11771.04,195.07 2942.8,48.72 2942.8,48.72 2942.8,48.72 0,0 0,0 -80.16,125.41 -80.08,125.34 -240.24,376.08 -452.68,626.82 -212.44,250.74 -477.16,501.48 -609.52,626.89 -132.28,125.33 -132.28,125.33 -132.28,125.33 0,0 0,0 -2817.39,-73.13 -2817.39,-73.13 -8452.09,-219.46 -11269.48,-292.59 -2817.39,-73.13 -2817.39,-73.13 -2817.39,-73.13 0,0 0,0 38.31,-139.31 38.3,-139.31 114.9,-417.85 212.36,-658.17 97.53,-240.32 215.99,-442.25 264.72,-529.28z"/>
   <path class="fil0" d="M1203.02 21323.4c69.66,-114.91 69.66,-114.91 73.13,-114.91 3.48,0 10.51,0 2385.56,31.35 2375.14,31.36 7118.3,93.98 9489.88,125.33 2371.67,31.36 2371.67,31.36 2371.67,31.36 0,0 0,0 -177.62,97.53 -177.61,97.45 -532.75,292.52 -1093.47,518.86 -560.71,226.34 -1326.84,484.11 -1870.17,661.72 -543.27,177.61 -863.66,275.06 -2772.14,323.87 -1908.4,48.73 -5404.81,48.73 -7156.53,48.73 -1751.71,0 -1758.74,0 -1762.22,0 -3.47,0 -3.47,0 24.41,-191.51 27.87,-191.59 83.55,-574.62 181.08,-881.04 97.54,-306.49 236.77,-536.39 306.42,-651.29z"/>
  </g>
 </g>
</svg>
