<?xml version="1.0" encoding="UTF-8"?>
<!DOCTYPE svg PUBLIC "-//W3C//DTD SVG 1.1//EN" "http://www.w3.org/Graphics/SVG/1.1/DTD/svg11.dtd">
<!-- Creator: CorelDRAW 2020 (64-Bit) -->
<svg xmlns="http://www.w3.org/2000/svg" xml:space="preserve" width="279.4mm" height="215.9mm" version="1.1" style="shape-rendering:geometricPrecision; text-rendering:geometricPrecision; image-rendering:optimizeQuality; fill-rule:evenodd; clip-rule:evenodd"
viewBox="0 0 27940 21590"
 xmlns:xlink="http://www.w3.org/1999/xlink"
 xmlns:xodm="http://www.corel.com/coreldraw/odm/2003">
 <defs>
  <style type="text/css">
   <![CDATA[
    .fil1 {fill:#C1376A}
    .fil0 {fill:#C1376A}
   ]]>
  </style>
 </defs>
 <g id="Capa_x0020_1">
  <metadata id="CorelCorpID_0Corel-Layer"/>
  <g id="_2645398780272">
   <path class="fil0" d="M9957.35 799.22c-30.76,-2.68 -25.11,-18.74 -22.31,-26.77 2.8,-8.09 2.8,-8.09 -70.1,3050.58 -72.83,3058.67 -218.63,9176.07 -291.52,12234.74 -72.84,3058.67 -72.84,3058.67 -98.07,3230.37 -25.23,171.7 -75.63,515.16 -44.8,735.17 30.82,220.01 142.93,316.57 249.38,313.89 106.52,-2.67 207.44,-104.59 224.22,-329.95 16.84,-225.43 -50.46,-574.18 -28.09,-3799.2 22.44,-3225.08 134.42,-9326.35 190.41,-12376.99 56.05,-3050.64 56.05,-3050.64 22.43,-3045.22 -33.55,5.35 -100.73,16.06 -131.55,13.38z"/>
   <path class="fil0" d="M11989.11 800.45c-30.76,-2.8 -25.1,-19.58 -22.31,-27.96 2.8,-8.46 2.8,-8.46 -70.1,3186.48 -72.83,3194.93 -218.62,9584.86 -291.52,12779.79 -72.83,3194.94 -72.83,3194.94 -98.06,3374.29 -25.23,179.35 -75.63,538.11 -44.81,767.92 30.82,229.81 142.93,330.67 249.39,327.88 106.51,-2.8 207.44,-109.25 224.22,-344.66 16.84,-235.47 -50.47,-599.76 -28.09,-3968.45 22.43,-3368.75 134.41,-9741.84 190.4,-12928.38 56.06,-3186.55 56.06,-3186.55 22.44,-3180.89 -33.56,5.59 -100.73,16.78 -131.56,13.98z"/>
   <path class="fil1" d="M8359.85 54.96c95.27,-232.61 95.27,-232.61 95.27,-232.61 0,0 0,0 1213.5,28.03 1213.57,28.02 3640.58,84.08 4851.28,112.11 1210.77,28.02 1205.12,28.02 1213.51,28.02 8.45,0 30.89,0 442.84,103.72 412.03,103.66 1213.51,311.1 1933.77,560.55 720.26,249.39 1359.29,540.85 1678.78,686.58 319.49,145.73 319.49,145.73 319.49,145.73 0,0 0,0 -2037.49,-44.81 -2037.48,-44.87 -6112.38,-134.54 -8149.87,-179.35 -2037.48,-44.87 -2037.48,-44.87 -1942.22,-277.47 95.27,-232.61 285.87,-697.89 381.14,-930.5z"/>
   <path class="fil0" d="M8668.15 2448.41c89.68,-154.18 89.68,-154.18 89.68,-154.18 0,0 0,0 2082.29,56.05 2082.35,56.06 6246.99,168.17 8329.28,224.22 2082.36,56.06 2082.36,56.06 2082.36,56.06 0,0 0,0 165.3,154.18 165.37,154.12 496.1,462.36 804.34,843.55 308.3,381.14 594.17,835.11 737.1,1062.12 142.94,227.02 142.94,227.02 142.94,227.02 0,0 0,0 -2555.96,-72.84 -2555.96,-72.89 -7667.88,-218.62 -10223.84,-294.25 -2555.96,-75.7 -2555.96,-81.29 -2555.96,-84.08 0,-2.8 0,-2.8 75.63,-210.18 75.69,-207.44 227.08,-622.19 392.38,-983.75 165.37,-361.56 344.79,-669.8 434.46,-823.92z"/>
   <path class="fil0" d="M8385.02 5847.92c70.1,-123.29 70.1,-123.29 72.89,-126.09 2.8,-2.79 8.46,-8.45 905.27,-5.65 896.81,2.79 2684.91,14.04 3578.93,19.63 894.01,5.6 894.01,5.6 894.01,5.6 0,0 0,0 2.8,319.48 2.8,319.49 8.39,958.53 11.19,1278.02 2.79,319.48 2.79,319.48 2.79,319.48 0,0 0,0 -994.94,-5.59 -994.88,-5.59 -2984.69,-16.84 -3979.64,-22.43 -994.87,-5.6 -994.87,-5.6 -994.87,-5.6 0,0 0,0 25.23,-193.39 25.23,-193.4 75.63,-580.13 170.9,-896.82 95.33,-316.69 235.4,-563.34 305.44,-686.64z"/>
   <path class="fil0" d="M19329.18 5761.05c-835.17,-36.42 -835.17,-36.42 -835.17,-36.42 0,0 0,0 128.89,145.73 128.95,145.73 386.79,437.19 566.14,770.72 179.35,333.47 280.27,709.01 330.67,896.81 50.46,187.74 50.46,187.74 50.46,187.74 0,0 0,0 739.9,25.23 739.9,25.23 2219.63,75.63 2959.53,100.86 739.9,25.24 739.9,25.24 737.1,25.24 -2.79,0 -8.45,0 -25.29,-140.14 -16.78,-140.14 -44.81,-420.35 -126.09,-742.63 -81.29,-322.35 -215.77,-686.64 -283.07,-868.79 -67.24,-182.21 -67.24,-182.21 -67.24,-182.21 0,0 0,0 -835.17,-36.41 -835.17,-36.42 -2505.5,-109.32 -3340.66,-145.73z"/>
   <path class="fil0" d="M8343.01 8810.25c72.89,-109.31 84.14,-109.31 86.94,-109.31 2.8,0 -2.86,0 893.95,5.59 896.88,5.59 2696.1,16.84 3595.71,22.43 899.67,5.6 899.67,5.6 899.67,5.6 0,0 0,0 0,243.85 0,243.8 0,731.45 0,975.31 0,243.79 0,243.79 0,243.79 0,0 0,0 -1014.58,8.45 -1014.51,8.39 -3043.54,25.17 -4058.12,33.62 -1014.52,8.39 -1014.52,8.39 -1014.52,8.39 0,0 0,0 44.81,-148.52 44.87,-148.53 134.6,-445.65 246.71,-703.49 112.11,-257.83 246.59,-476.4 319.43,-585.71z"/>
   <path class="fil0" d="M19755.12 8984.01c28.03,-148.53 39.27,-148.53 42.07,-148.53 2.8,0 -2.8,0 706.21,14.05 709.08,13.98 2132.82,42 2844.63,56.05 711.87,13.98 711.87,13.98 711.87,13.98 0,0 0,0 0,126.16 0,126.09 0,378.27 -39.28,664.14 -39.21,285.87 -117.64,605.35 -156.91,765.13 -39.22,159.71 -39.22,159.71 -39.22,159.71 0,0 0,0 -748.28,-13.98 -748.29,-14.05 -2244.87,-42.08 -3015.59,-56.06 -770.72,-14.04 -815.52,-14.04 -826.77,-25.23 -11.19,-11.25 11.25,-33.62 84.08,-170.96 72.89,-137.34 196.25,-389.52 280.27,-664.14 84.08,-274.68 128.95,-571.8 156.92,-720.32z"/>
   <path class="fil0" d="M9195.01 11324.2c-891.22,-16.84 -891.22,-16.84 -891.22,-16.84 0,0 0,0 -70.1,123.29 -70.03,123.3 -210.11,369.95 -305.44,610.95 -95.27,241 -145.73,476.46 -168.16,594.17 -22.44,117.7 -16.78,117.7 -13.98,117.7 2.79,0 2.79,0 2508.29,47.67 2505.5,47.6 7516.56,142.93 10022.05,190.59 2505.5,47.61 2505.5,47.61 2505.5,47.61 0,0 0,0 64.44,-100.86 64.45,-100.93 193.4,-302.71 316.69,-535.32 123.3,-232.61 241.07,-496.11 299.92,-627.79 58.85,-131.75 58.85,-131.75 58.85,-131.75 0,0 0,0 -919.25,-33.62 -919.25,-33.62 -2757.74,-100.92 -3674.2,-134.54 -916.45,-33.62 -910.85,-33.62 -908.06,-33.62 2.8,0 2.8,0 -58.85,64.51 -61.65,64.44 -185.01,193.33 -442.84,311.09 -257.78,117.71 -650.16,224.16 -1059.33,274.62 -409.16,50.46 -835.16,44.81 -1311.63,16.78 -476.4,-28.03 -1003.33,-78.43 -1266.76,-103.66 -263.43,-25.23 -263.43,-25.23 -263.43,-25.23 0,0 0,0 5.59,-95.27 5.59,-95.33 16.84,-285.86 22.44,-381.13 5.59,-95.33 5.59,-95.33 5.59,-95.33 0,0 0,0 -891.22,-16.78 -891.22,-16.84 -2673.66,-50.46 -3564.89,-67.24z"/>
   <path class="fil0" d="M8012.33 13821.31c39.22,-70.1 22.44,-47.73 13.99,-36.48 -8.39,11.18 -8.39,11.18 2359.76,50.46 2368.22,39.21 7104.6,117.7 9472.76,156.98 2368.22,39.21 2368.22,39.21 2368.22,39.21 0,0 0,0 -64.51,100.92 -64.44,100.87 -193.33,302.65 -364.29,504.43 -170.96,201.79 -384,403.57 -490.51,504.5 -106.46,100.86 -106.46,100.86 -106.46,100.86 0,0 0,0 -2267.29,-58.85 -2267.3,-58.85 -6801.83,-176.62 -9069.12,-235.47 -2267.3,-58.85 -2267.3,-58.85 -2267.3,-58.85 0,0 0,0 30.82,-112.11 30.83,-112.11 92.48,-336.27 170.9,-529.66 78.49,-193.4 173.82,-355.91 213.03,-425.94z"/>
   <path class="fil0" d="M8281.36 16141.8c56.05,-92.47 56.05,-92.47 58.85,-92.47 2.8,0 8.45,0 1919.78,25.23 1911.4,25.23 5728.46,75.63 7636.99,100.86 1908.6,25.23 1908.6,25.23 1908.6,25.23 0,0 0,0 -142.93,78.49 -142.94,78.42 -428.74,235.4 -879.98,417.55 -451.23,182.15 -1067.77,389.59 -1505.02,532.52 -437.19,142.93 -695.03,221.36 -2230.88,260.64 -1535.79,39.21 -4349.52,39.21 -5759.22,39.21 -1409.7,0 -1415.35,0 -1418.15,0 -2.8,0 -2.8,0 19.64,-154.12 22.43,-154.18 67.24,-462.42 145.73,-709.01 78.49,-246.65 190.53,-431.66 246.59,-524.13z"/>
  </g>
 </g>
</svg>
